<svg width="820" height="643" viewBox="0 0 820 643" fill="none" xmlns="http://www.w3.org/2000/svg">
<path opacity="0.3" d="M0.0232937 575.21C6.55329 605.48 31.1433 629.64 60.3433 638.65C90.5933 647.98 122.343 638.55 143.543 615.26C163.993 592.77 173.643 559.26 162.463 530.16C152.003 502.94 122.173 479.29 92.3533 492.43C67.1733 503.53 52.4533 536.43 63.4433 562.13C74.4333 587.83 105.193 600.32 131.753 595.62C165.263 589.68 183.753 557.12 193.123 527.35C204.543 491.29 206.223 449.28 232.503 419.74C253.223 396.45 285.503 385.03 316.333 387.35C331.783 388.411 346.724 393.309 359.803 401.6C373.993 410.77 386.143 426.42 387.803 443.68C389.653 462.88 374.923 476.68 356.433 478.07C336.103 479.58 318.333 467.26 302.903 455.55C273.443 433.18 244.113 404.55 235.033 367.39C227.033 334.48 236.093 294.9 267.423 277.45C302.943 257.67 345.333 271.75 376.673 292.72C393.673 304.1 409.183 317.63 424.673 330.95C440.423 344.49 456.093 358.15 472.483 370.95C503.563 395.17 537.673 416.3 576.413 425.41C612.753 433.96 651.833 431.41 684.023 411.24C714.023 392.5 735.193 362.24 748.763 330.06C765.763 289.86 772.443 246.16 780.583 203.56L806.703 66.9196L819.223 1.3996C819.493 -0.0104028 817.333 -0.600378 817.053 0.799622L791.243 135.8C782.853 179.72 775.423 223.95 765.583 267.57C756.813 306.4 744.043 345.35 718.773 376.78C707.583 390.7 694.153 402.94 678.593 411.83C661.596 421.373 642.597 426.795 623.123 427.66C538.413 432.01 473.503 369.27 413.613 318.54C385.073 294.38 353.293 269.54 314.613 266.22C297.893 264.77 280.413 267.42 265.703 275.81C252.43 283.539 242.123 295.486 236.423 309.75C223.773 340.53 230.643 375.2 248.073 402.58C257.843 417.88 270.423 431.21 284.023 443.11C297.923 455.26 313.193 467.97 330.243 475.35C344.763 481.63 362.653 483.06 376.313 473.8C388.513 465.52 392.373 450.86 388.883 436.99C381.283 406.78 350.693 389.33 321.633 385.64C292.813 381.99 262.263 390.42 240.023 409.26C211.733 433.26 204.943 470.72 196.803 504.97C189.103 537.41 176.113 577.24 141.923 590.47C114.613 601.04 78.4233 589.7 65.9233 562.2C53.2733 534.42 72.9233 496.56 103.213 491.48C139.513 485.38 165.313 525.04 164.943 557.09C164.573 589.14 143.943 620.48 114.723 633.69C84.3033 647.42 48.3033 637.78 24.9633 615.05C13.5655 604.116 5.654 590.057 2.22329 574.64C1.91329 573.21 -0.246706 573.83 0.0232937 575.21Z" fill="url(#paint0_linear_0_565)"/>
<defs>
<linearGradient id="paint0_linear_0_565" x1="792" y1="104.5" x2="-49" y2="732" gradientUnits="userSpaceOnUse">
<stop offset="0.112147" stop-color="#9A97ED"/>
<stop offset="0.405503" stop-color="#9A97ED"/>
<stop offset="0.649073" stop-color="#9A97ED" stop-opacity="0.5"/>
<stop offset="1" stop-color="white" stop-opacity="0"/>
</linearGradient>
</defs>
</svg>
