<svg width="1003" height="322" viewBox="0 0 1003 322" fill="none" xmlns="http://www.w3.org/2000/svg">
<path d="M0.247974 102.206C16.2879 133.015 48.2383 155.208 83.1518 157.548C114.057 159.59 148.013 145.921 162.19 117.003C174.748 91.3734 170.738 55.2906 145.936 38.2765C124.054 23.2624 89.3403 27.9136 73.9925 50.1264C58.4306 72.6328 70.0738 101.949 89.438 117.785C112.936 137.07 144.717 135.398 171.34 123.823C206.723 108.489 231.593 78.3444 258.458 51.9207C283.523 27.2611 314.692 3.04654 351.54 2.37507C389.66 1.6531 420.683 29.8599 434.077 63.827C440.862 81.0424 443.796 99.6262 444.04 118.073C444.296 136.782 441.722 155.815 434.536 173.204C421.344 205.089 388.376 232.737 352.03 224.955C336.264 221.574 321.462 211.854 313.848 197.411C306.394 183.262 307.457 166.355 314.268 152.191C321.124 137.82 333.317 126.691 348.253 121.174C363.819 115.52 381.016 115.807 396.837 120.269C435.82 131.279 461.125 166.198 477.682 201.121C493.571 234.635 505.022 271.924 532.985 297.886C544.336 308.43 558.049 316.918 573.312 320.244C588.986 323.634 604.906 320.824 619.321 314.003C655.354 297.016 676.105 260.67 708.43 238.671C735.003 220.597 767.51 211.883 799.547 213.127C815.598 213.715 831.445 216.914 846.467 222.598C864.486 229.49 880.187 241.26 898.342 247.81C912.576 252.936 929.836 254.396 943.251 246.205C959.065 236.552 963.913 217.295 969.376 200.87C974.556 185.256 983.632 166.745 1001.69 163.877C1003.13 163.647 1002.49 161.48 1001.08 161.716C985.017 164.274 975.383 179.145 969.758 193.19C962.812 210.546 959.979 232.611 943.051 243.677C927.612 253.791 907.649 249.804 891.855 242.81C875.169 235.357 860.114 224.906 842.746 218.907C813.467 208.775 781.068 208.265 751.275 216.515C736.328 220.626 722.111 227.034 709.132 235.511C692.714 246.293 679.267 260.679 665.643 274.672C640.838 300.027 608.708 327.54 570.522 317.231C535.264 307.676 513.672 274.842 499.112 243.725C482.405 207.934 469.398 169.766 439.506 142.304C415.831 120.567 381.458 107.878 349.772 118.276C323.256 127.02 302.823 154.47 306.878 183.021C311.173 213.122 343.095 231.674 371.837 228.039C405.56 223.766 430.329 195.555 440.083 164.451C450.352 131.619 448.525 92.5988 435.291 60.8708C422.419 30.0205 395.088 3.86387 360.722 0.496253C328.517 -2.66155 297.87 14.1888 274.115 34.4126C243.523 60.477 219.497 94.4113 184.286 114.764C157.359 130.34 121.803 138.182 94.6064 118.925C72.3582 103.168 58.348 69.5225 79.4734 46.8836C89.6231 36.0133 105.118 31.1389 119.729 31.9588C135.46 32.6758 149.833 41.0822 158.17 54.4421C166.654 68.0564 168.741 85.1133 165.441 100.666C161.916 117.038 152.231 131.427 138.391 140.855C108.812 161.322 68.8106 159.227 38.9044 140.704C23.3375 131.021 10.6568 117.335 2.18723 101.076C1.51384 99.772 -0.417979 100.923 0.247974 102.206Z" fill="url(#paint0_linear_0_564)" fill-opacity="0.5"/>
<defs>
<linearGradient id="paint0_linear_0_564" x1="1156" y1="274.5" x2="231.5" y2="-45.4999" gradientUnits="userSpaceOnUse">
<stop stop-color="white" stop-opacity="0"/>
<stop offset="1" stop-color="#9A97ED"/>
</linearGradient>
</defs>
</svg>
